<mxfile host="app.diagrams.net" agent="Mozilla/5.0 (Macintosh; Intel Mac OS X 10_15_7) AppleWebKit/537.36 (KHTML, like Gecko) Chrome/134.0.0.0 Safari/537.36" version="26.1.1">
  <diagram name="Page-1" id="BlYlJvyanj7RIRMz2L1-">
    <mxGraphModel dx="1026" dy="650" grid="1" gridSize="10" guides="1" tooltips="1" connect="1" arrows="1" fold="1" page="1" pageScale="1" pageWidth="827" pageHeight="1169" math="0" shadow="0">
      <root>
        <mxCell id="0" />
        <mxCell id="1" parent="0" />
        <mxCell id="o_-gnsf7d-mlj3r4QOCy-2" value="App user" style="shape=umlActor;html=1;verticalLabelPosition=bottom;verticalAlign=top;align=center;" vertex="1" parent="1">
          <mxGeometry x="80" y="200" width="30" height="60" as="geometry" />
        </mxCell>
        <mxCell id="o_-gnsf7d-mlj3r4QOCy-4" value="Create Note" style="ellipse;whiteSpace=wrap;html=1;" vertex="1" parent="1">
          <mxGeometry x="274" y="70" width="140" height="70" as="geometry" />
        </mxCell>
        <mxCell id="o_-gnsf7d-mlj3r4QOCy-5" value="" style="edgeStyle=none;html=1;endArrow=none;verticalAlign=bottom;rounded=0;entryX=0;entryY=0.5;entryDx=0;entryDy=0;" edge="1" parent="1" target="o_-gnsf7d-mlj3r4QOCy-4">
          <mxGeometry width="160" relative="1" as="geometry">
            <mxPoint x="120" y="210" as="sourcePoint" />
            <mxPoint x="480" y="320" as="targetPoint" />
          </mxGeometry>
        </mxCell>
        <mxCell id="o_-gnsf7d-mlj3r4QOCy-6" value="Edit Note" style="ellipse;whiteSpace=wrap;html=1;" vertex="1" parent="1">
          <mxGeometry x="274" y="160" width="140" height="70" as="geometry" />
        </mxCell>
        <mxCell id="o_-gnsf7d-mlj3r4QOCy-7" value="Attach Video" style="ellipse;whiteSpace=wrap;html=1;" vertex="1" parent="1">
          <mxGeometry x="190" y="270" width="140" height="70" as="geometry" />
        </mxCell>
        <mxCell id="o_-gnsf7d-mlj3r4QOCy-8" value="Attach Photo" style="ellipse;whiteSpace=wrap;html=1;" vertex="1" parent="1">
          <mxGeometry x="344" y="400" width="140" height="70" as="geometry" />
        </mxCell>
        <mxCell id="o_-gnsf7d-mlj3r4QOCy-9" value="" style="edgeStyle=none;html=1;endArrow=none;verticalAlign=bottom;rounded=0;entryX=0;entryY=0.5;entryDx=0;entryDy=0;" edge="1" parent="1" target="o_-gnsf7d-mlj3r4QOCy-6">
          <mxGeometry width="160" relative="1" as="geometry">
            <mxPoint x="130" y="220" as="sourcePoint" />
            <mxPoint x="284" y="115" as="targetPoint" />
          </mxGeometry>
        </mxCell>
        <mxCell id="o_-gnsf7d-mlj3r4QOCy-12" value="&amp;lt;&amp;lt;extend&amp;gt;&amp;gt;" style="edgeStyle=none;html=1;startArrow=open;endArrow=none;startSize=12;verticalAlign=bottom;dashed=1;labelBackgroundColor=none;rounded=0;exitX=0.55;exitY=1.043;exitDx=0;exitDy=0;exitPerimeter=0;" edge="1" parent="1" source="o_-gnsf7d-mlj3r4QOCy-6" target="o_-gnsf7d-mlj3r4QOCy-8">
          <mxGeometry width="160" relative="1" as="geometry">
            <mxPoint x="320" y="320" as="sourcePoint" />
            <mxPoint x="480" y="320" as="targetPoint" />
          </mxGeometry>
        </mxCell>
        <mxCell id="o_-gnsf7d-mlj3r4QOCy-13" value="&amp;lt;&amp;lt;extend&amp;gt;&amp;gt;" style="edgeStyle=none;html=1;startArrow=open;endArrow=none;startSize=12;verticalAlign=bottom;dashed=1;labelBackgroundColor=none;rounded=0;exitX=0.271;exitY=0.986;exitDx=0;exitDy=0;exitPerimeter=0;" edge="1" parent="1" source="o_-gnsf7d-mlj3r4QOCy-6" target="o_-gnsf7d-mlj3r4QOCy-7">
          <mxGeometry width="160" relative="1" as="geometry">
            <mxPoint x="361" y="243" as="sourcePoint" />
            <mxPoint x="355" y="450" as="targetPoint" />
          </mxGeometry>
        </mxCell>
        <mxCell id="o_-gnsf7d-mlj3r4QOCy-14" value="" style="edgeStyle=none;html=1;endArrow=none;verticalAlign=bottom;rounded=0;" edge="1" parent="1" target="o_-gnsf7d-mlj3r4QOCy-7">
          <mxGeometry width="160" relative="1" as="geometry">
            <mxPoint x="120" y="260" as="sourcePoint" />
            <mxPoint x="284" y="205" as="targetPoint" />
            <Array as="points" />
          </mxGeometry>
        </mxCell>
        <mxCell id="o_-gnsf7d-mlj3r4QOCy-15" value="" style="edgeStyle=none;html=1;endArrow=none;verticalAlign=bottom;rounded=0;" edge="1" parent="1">
          <mxGeometry width="160" relative="1" as="geometry">
            <mxPoint x="110" y="290" as="sourcePoint" />
            <mxPoint x="340" y="440" as="targetPoint" />
            <Array as="points" />
          </mxGeometry>
        </mxCell>
        <mxCell id="o_-gnsf7d-mlj3r4QOCy-16" value="Note Mangement Stories Use Case" style="text;html=1;align=center;verticalAlign=middle;whiteSpace=wrap;rounded=0;fontStyle=1" vertex="1" parent="1">
          <mxGeometry x="170" y="10" width="230" height="30" as="geometry" />
        </mxCell>
      </root>
    </mxGraphModel>
  </diagram>
</mxfile>
